<?xml version="1.0" standalone="no"?><!DOCTYPE svg PUBLIC "-//W3C//DTD SVG 1.1//EN" "http://www.w3.org/Graphics/SVG/1.1/DTD/svg11.dtd"><svg t="1581242188494" class="icon" viewBox="0 0 1024 1024" version="1.1" xmlns="http://www.w3.org/2000/svg" p-id="2170" xmlns:xlink="http://www.w3.org/1999/xlink" width="200" height="200"><defs><style type="text/css"></style></defs><path d="M938 285.7H311c-12.3 0-22.2-9.9-22.2-22.2 0-12.3 9.9-22.2 22.2-22.2h627c12.3 0 22.2 9.9 22.2 22.2 0 12.2-10 22.2-22.2 22.2z" fill="#231915" p-id="2171"></path><path d="M120.3 316.5c30.2 0 54.8-24.6 54.8-54.8 0-30.2-24.6-54.8-54.8-54.8s-54.8 24.6-54.8 54.8c0 30.2 24.6 54.8 54.8 54.8z" fill="#231915" p-id="2172"></path><path d="M938 541.1H311c-12.3 0-22.2-9.9-22.2-22.2 0-12.3 9.9-22.2 22.2-22.2h627c12.3 0 22.2 9.9 22.2 22.2 0 12.3-10 22.2-22.2 22.2z" fill="#231915" p-id="2173"></path><path d="M120.3 572c30.2 0 54.8-24.6 54.8-54.8 0-30.2-24.6-54.8-54.8-54.8S65.5 487 65.5 517.2c0 30.2 24.6 54.8 54.8 54.8z" fill="#231915" p-id="2174"></path><path d="M938 787.8H311c-12.3 0-22.2-9.9-22.2-22.2s9.9-22.2 22.2-22.2h627c12.3 0 22.2 9.9 22.2 22.2s-10 22.2-22.2 22.2z" fill="#231915" p-id="2175"></path><path d="M120.3 818.6c30.2 0 54.8-24.6 54.8-54.8 0-30.2-24.6-54.8-54.8-54.8s-54.8 24.6-54.8 54.8c0 30.2 24.6 54.8 54.8 54.8z" fill="#231915" p-id="2176"></path></svg>